<svg fill="#FFFFFF" xmlns="http://www.w3.org/2000/svg" class="SVGIcon_Button SVGIcon_Submit" version="1.1" x="0px" y="0px" viewBox="0 0 100 100"><g transform="translate(0,-952.36218)"><path d="m 92.115057,974.14842 a 2.0001999,2.0001999 0 0 0 -1.96764,2.02965 l 0.0376,31.19553 -77.475501,0 16.161909,-15.73013 a 2.0002746,2.0002746 0 1 0 -2.790355,-2.8667 L 6.3913393,1007.9405 a 2.0001999,2.0001999 0 0 0 -0.0011,2.8646 l 19.6896957,19.2036 a 2.0002671,2.0002671 0 1 0 2.792551,-2.8646 l -16.170767,-15.771 79.153048,0 a 2.0001999,2.0001999 0 0 0 1.72959,-0.5437 2.0001999,2.0001999 0 0 0 0.0598,-0.058 2.0001999,2.0001999 0 0 0 0.54259,-1.7218 l -0.0388,-32.87638 a 2.0001999,2.0001999 0 0 0 -2.03297,-2.02522 z" fill="#FFFFFF" fill-opacity="1" fill-rule="evenodd" stroke="none" visibility="visible" display="inline" overflow="visible"></path></g></svg>
